<svg id="Layer_1" data-name="Layer 1" xmlns="http://www.w3.org/2000/svg" viewBox="0 0 176.36 49.59"><defs><style>.cls-1{fill:#fff;}.cls-2{opacity:0.8;}.cls-3{fill:#231f20;}.cls-4{fill:#f8991d;}.cls-5{fill:#666766;}.cls-6{fill:#999;opacity:0.6;}</style></defs><title>logo-azenha</title><ellipse class="cls-1" cx="163.11" cy="22.87" rx="10.2" ry="10.41"/><g class="cls-2"><path class="cls-3" d="M18.44,1.43,34.65,36.2H30.9L25.43,24.76h-15L5,36.2H1.16L17.59,1.43ZM18,8.81,12,21.4H23.93Z" transform="translate(-1.15 -0.55)"/><path class="cls-3" d="M38.7,10.48H57.59L43,33.27H57.12V36.2H37.33L51.88,13.39H38.7Z" transform="translate(-1.15 -0.55)"/><path class="cls-3" d="M83,27.66l2.79,1.47a15.22,15.22,0,0,1-3.17,4.35,12.59,12.59,0,0,1-4,2.52,14.12,14.12,0,0,1-5.09.86q-6.29,0-9.84-4.12a13.92,13.92,0,0,1-3.55-9.33,13.75,13.75,0,0,1,3-8.72,12.28,12.28,0,0,1,10.2-4.87,12.69,12.69,0,0,1,10.5,5,13.93,13.93,0,0,1,2.84,8.79H63.52a10.47,10.47,0,0,0,2.86,7.35,9.13,9.13,0,0,0,6.84,2.87A11,11,0,0,0,77,33.13a10,10,0,0,0,3.16-1.81A15.43,15.43,0,0,0,83,27.66Zm0-6.93a11,11,0,0,0-1.93-4.23A9.13,9.13,0,0,0,77.75,14a10.26,10.26,0,0,0-4.38-1,9.43,9.43,0,0,0-6.51,2.43,11,11,0,0,0-3,5.32Z" transform="translate(-1.15 -0.55)"/><path class="cls-3" d="M92.83,10.48h3.31v4.61a13.84,13.84,0,0,1,4.4-4,10.81,10.81,0,0,1,5.25-1.31,9.12,9.12,0,0,1,5.12,1.47,8.73,8.73,0,0,1,3.3,3.95A20.87,20.87,0,0,1,115.27,23V36.2H112V23.93a30.26,30.26,0,0,0-.37-5.93,6.52,6.52,0,0,0-2.21-3.84,6.66,6.66,0,0,0-4.26-1.29,8.16,8.16,0,0,0-5.38,2,9.3,9.3,0,0,0-3.13,4.92,34.18,34.18,0,0,0-.47,7V36.2H92.83Z" transform="translate(-1.15 -0.55)"/><path class="cls-3" d="M122.36.55h3.31V15.09a14.07,14.07,0,0,1,4.42-4,10.76,10.76,0,0,1,5.22-1.31,9.12,9.12,0,0,1,5.12,1.47,8.74,8.74,0,0,1,3.3,3.94q1.06,2.47,1.06,7.74V36.2h-3.31V23.93a31.38,31.38,0,0,0-.35-5.93,6.72,6.72,0,0,0-2.23-3.84,6.61,6.61,0,0,0-4.24-1.29,8.16,8.16,0,0,0-5.38,2,9.3,9.3,0,0,0-3.13,4.92,34,34,0,0,0-.47,7V36.2h-3.31Z" transform="translate(-1.15 -0.55)"/><path class="cls-3" d="M177.51,10.48V36.2h-3.26V31.78a14.18,14.18,0,0,1-4.67,3.81,13,13,0,0,1-15-2.68,13.28,13.28,0,0,1-3.86-9.63,13,13,0,0,1,3.9-9.5A12.72,12.72,0,0,1,164,9.82a12.13,12.13,0,0,1,5.73,1.35,13,13,0,0,1,4.5,4V10.48ZM164.28,13a10,10,0,0,0-8.82,5.17,10.42,10.42,0,0,0,0,10.39,10.14,10.14,0,0,0,3.74,3.86,9.78,9.78,0,0,0,5,1.38,10.34,10.34,0,0,0,5.15-1.37,9.58,9.58,0,0,0,3.74-3.71,10.58,10.58,0,0,0,1.31-5.27A10.23,10.23,0,0,0,171.52,16,9.74,9.74,0,0,0,164.28,13Z" transform="translate(-1.15 -0.55)"/></g><circle class="cls-4" cx="163.19" cy="22.68" r="4.11"/><path class="cls-5" d="M98.93,40.87h.86v5.31a6.28,6.28,0,0,1-.24,2.05,2.67,2.67,0,0,1-1.17,1.42,3.85,3.85,0,0,1-2,.5,4.59,4.59,0,0,1-1.54-.24,3.08,3.08,0,0,1-1.11-.65,3.88,3.88,0,0,1-.79-1.19h.93a2.46,2.46,0,0,0,1,1,3.15,3.15,0,0,0,1.49.32A3.09,3.09,0,0,0,97.81,49a2,2,0,0,0,.86-.82,3.66,3.66,0,0,0,.26-1.6v-.34a3.26,3.26,0,0,1-1.18.94,3.51,3.51,0,0,1-3.21-.13,3.24,3.24,0,0,1-1.25-1.23,3.36,3.36,0,0,1-.44-1.7,3.47,3.47,0,0,1,3.45-3.46,3.2,3.2,0,0,1,1.4.31,3.85,3.85,0,0,1,1.25,1Zm-2.53.66a2.71,2.71,0,0,0-1.35.35,2.55,2.55,0,0,0-1,1,2.67,2.67,0,0,0-.36,1.34A2.43,2.43,0,0,0,94.44,46a2.62,2.62,0,0,0,1.91.72,2.59,2.59,0,0,0,1.9-.71A2.51,2.51,0,0,0,99,44.15a2.71,2.71,0,0,0-.33-1.34,2.41,2.41,0,0,0-.94-.93A2.6,2.6,0,0,0,96.4,41.53Z" transform="translate(-1.15 -0.55)"/><path class="cls-5" d="M102.73,40.87h.86V44a6.66,6.66,0,0,0,.12,1.57,1.75,1.75,0,0,0,.7,1,2.13,2.13,0,0,0,1.24.36,2.09,2.09,0,0,0,1.22-.35,1.77,1.77,0,0,0,.69-.91,6.42,6.42,0,0,0,.13-1.64V40.87h.88v3.27a5.17,5.17,0,0,1-.32,2.08,2.46,2.46,0,0,1-1,1.09,3.05,3.05,0,0,1-1.62.4,3.09,3.09,0,0,1-1.63-.4,2.44,2.44,0,0,1-1-1.1,5.39,5.39,0,0,1-.32-2.13Z" transform="translate(-1.15 -0.55)"/><path class="cls-5" d="M117.29,45.32l.72.38a3.93,3.93,0,0,1-.82,1.13,3.26,3.26,0,0,1-1,.65,3.65,3.65,0,0,1-1.32.22,3.19,3.19,0,0,1-2.55-1.07,3.61,3.61,0,0,1-.92-2.42,3.56,3.56,0,0,1,.78-2.26,3.18,3.18,0,0,1,2.64-1.26A3.29,3.29,0,0,1,117.5,42a3.61,3.61,0,0,1,.74,2.28h-6a2.72,2.72,0,0,0,.74,1.9,2.37,2.37,0,0,0,1.77.74,2.85,2.85,0,0,0,1-.18,2.6,2.6,0,0,0,.82-.47A4,4,0,0,0,117.29,45.32Zm0-1.79a2.85,2.85,0,0,0-.5-1.1,2.37,2.37,0,0,0-.87-.66,2.66,2.66,0,0,0-1.13-.25,2.44,2.44,0,0,0-1.69.63,2.85,2.85,0,0,0-.78,1.38Z" transform="translate(-1.15 -0.55)"/><path class="cls-5" d="M124.41,41.6l-.55.57a2,2,0,0,0-1.35-.67,1,1,0,0,0-.72.28.85.85,0,0,0-.3.64,1,1,0,0,0,.25.62,3.44,3.44,0,0,0,1,.7,3.85,3.85,0,0,1,1.3,1,1.74,1.74,0,0,1,.34,1,1.88,1.88,0,0,1-.58,1.39,2,2,0,0,1-1.44.57,2.52,2.52,0,0,1-1.1-.25,2.39,2.39,0,0,1-.87-.69l.54-.61a1.87,1.87,0,0,0,1.39.74,1.25,1.25,0,0,0,.88-.33,1,1,0,0,0,.36-.78,1,1,0,0,0-.24-.66,3.85,3.85,0,0,0-1.08-.71A3.46,3.46,0,0,1,121,43.5a1.73,1.73,0,0,1-.33-1,1.68,1.68,0,0,1,.52-1.26,1.81,1.81,0,0,1,1.31-.5A2.72,2.72,0,0,1,124.41,41.6Z" transform="translate(-1.15 -0.55)"/><path class="cls-5" d="M127.89,38.4h.86v2.48h1.36v.74h-1.36v5.92h-.86V41.61h-1.17v-.74h1.17Z" transform="translate(-1.15 -0.55)"/><path class="cls-5" d="M137.3,38.3h.86v3.77a3.64,3.64,0,0,1,1.15-1,2.79,2.79,0,0,1,1.35-.34,2.37,2.37,0,0,1,1.33.38,2.27,2.27,0,0,1,.85,1,5.4,5.4,0,0,1,.28,2v3.43h-.86V44.36a8.15,8.15,0,0,0-.09-1.54,1.74,1.74,0,0,0-.58-1,1.71,1.71,0,0,0-1.1-.33,2.12,2.12,0,0,0-1.39.51,2.41,2.41,0,0,0-.81,1.27,8.82,8.82,0,0,0-.12,1.81v2.44h-.86Z" transform="translate(-1.15 -0.55)"/><path class="cls-5" d="M149.33,40.7a3.3,3.3,0,0,1,2.55,1.12,3.58,3.58,0,0,1-.05,4.85,3.52,3.52,0,0,1-5,0,3.57,3.57,0,0,1-.05-4.84A3.3,3.3,0,0,1,149.33,40.7Zm0,.84a2.47,2.47,0,0,0-1.84.79,2.64,2.64,0,0,0-.77,1.91,2.71,2.71,0,0,0,.35,1.35,2.48,2.48,0,0,0,.95,1,2.69,2.69,0,0,0,2.62,0,2.48,2.48,0,0,0,.95-1,2.71,2.71,0,0,0,.35-1.35,2.64,2.64,0,0,0-.77-1.91A2.48,2.48,0,0,0,149.32,41.54Z" transform="translate(-1.15 -0.55)"/><path class="cls-5" d="M155.49,40.87h.86V44a6.66,6.66,0,0,0,.12,1.57,1.75,1.75,0,0,0,.7,1,2.13,2.13,0,0,0,1.24.36,2.09,2.09,0,0,0,1.22-.35,1.77,1.77,0,0,0,.69-.91,6.42,6.42,0,0,0,.13-1.64V40.87h.88v3.27a5.17,5.17,0,0,1-.32,2.08,2.46,2.46,0,0,1-1,1.09,3.05,3.05,0,0,1-1.62.4,3.09,3.09,0,0,1-1.63-.4,2.44,2.44,0,0,1-1-1.1,5.39,5.39,0,0,1-.32-2.13Z" transform="translate(-1.15 -0.55)"/><path class="cls-5" d="M167.8,41.6l-.55.57a2,2,0,0,0-1.35-.67,1,1,0,0,0-.72.28.85.85,0,0,0-.3.64,1,1,0,0,0,.25.62,3.44,3.44,0,0,0,1,.7,3.85,3.85,0,0,1,1.3,1,1.74,1.74,0,0,1,.34,1,1.88,1.88,0,0,1-.58,1.39,2,2,0,0,1-1.44.57,2.52,2.52,0,0,1-1.1-.25,2.39,2.39,0,0,1-.87-.69l.54-.61a1.87,1.87,0,0,0,1.39.74,1.25,1.25,0,0,0,.88-.33,1,1,0,0,0,.36-.78,1,1,0,0,0-.24-.66,3.85,3.85,0,0,0-1.08-.71,3.46,3.46,0,0,1-1.23-.92,1.73,1.73,0,0,1-.33-1,1.68,1.68,0,0,1,.52-1.26,1.81,1.81,0,0,1,1.31-.5A2.72,2.72,0,0,1,167.8,41.6Z" transform="translate(-1.15 -0.55)"/><path class="cls-5" d="M176.15,45.32l.72.38a3.93,3.93,0,0,1-.82,1.13,3.26,3.26,0,0,1-1,.65,3.65,3.65,0,0,1-1.32.22,3.19,3.19,0,0,1-2.55-1.07,3.61,3.61,0,0,1-.92-2.42A3.56,3.56,0,0,1,171,42a3.18,3.18,0,0,1,2.64-1.26A3.29,3.29,0,0,1,176.36,42a3.61,3.61,0,0,1,.74,2.28h-6a2.72,2.72,0,0,0,.74,1.9,2.37,2.37,0,0,0,1.77.74,2.85,2.85,0,0,0,1-.18,2.6,2.6,0,0,0,.82-.47A4,4,0,0,0,176.15,45.32Zm0-1.79a2.85,2.85,0,0,0-.5-1.1,2.37,2.37,0,0,0-.87-.66,2.66,2.66,0,0,0-1.13-.25,2.44,2.44,0,0,0-1.69.63,2.85,2.85,0,0,0-.78,1.38Z" transform="translate(-1.15 -0.55)"/><rect class="cls-6" y="42.38" width="85.64" height="1.75"/></svg>